<?xml version="1.0" encoding="utf-8"?>
<!-- Generator: Adobe Illustrator 19.2.0, SVG Export Plug-In . SVG Version: 6.00 Build 0)  -->
<svg xmlns="http://www.w3.org/2000/svg" xmlns:xlink="http://www.w3.org/1999/xlink" version="1.1" id="rainbowcloud" x="0px" y="0px" viewBox="0 0 204 206.1416" enable-background="new 0 0 204 206.1416" xml:space="preserve" width="512" height="512">
<g>
	<path fill="#5CB0FF" d="M175.9609,127.8099c-0.3633,0-0.7227,0.0117-1.0781,0.0273c-1.0898,0.0625-2.1562-0.3477-2.9492-1.1016   c-0.7891-0.7539-1.2383-1.8008-1.2383-2.8945c0-10.5222-6.0588-19.6985-15.0312-24.6448c-0.9109-0.1338-1.7297-0.5161-2.332-1.1545   c-3.8921-1.7339-8.2205-2.7319-12.8008-2.7319c-13.2266,0-24.7852,8-28.7695,19.9062c-0.5938,1.7617-2.3438,2.9219-4.1719,2.7109   c-0.8203-0.0781-1.6484-0.1172-2.4883-0.1172C91.2617,117.8099,80,128.9115,80,142.56c0,14.0078,11.9062,25.3203,26.1914,24.7265   c0.207-0.0117,0.4336-0.0039,0.6523,0.0234h69.875c0.0977-0.0117,0.1953-0.0195,0.293-0.0273   C187.6602,166.7435,196,158.0795,196,147.56C196,136.6693,187.0117,127.8099,175.9609,127.8099z"/>
	<path fill="#1C71DA" d="M178.4805,119.9193c-1.2961-11.6575-8.3674-21.6731-18.4043-27.4243   c-1.5789-40.5964-36.7888-73.1851-79.9629-73.1851C35.9375,19.3099,0,53.4037,0,95.3099c0,2.2109,1.7891,4,4,4s4-1.7891,4-4   c0-37.4961,32.3516-68,72.1133-68c37.4983,0,68.3762,27.1377,71.7734,61.6768c-3.1326-0.9365-6.4363-1.481-9.8552-1.6089   c-4.1245-29.0898-30.6514-51.4507-61.9182-51.4507c-34.4883,0-62.5469,26.6406-62.5469,59.3828c0,2.2109,1.7891,4,4,4s4-1.7891,4-4   c0-28.332,24.4688-51.3828,54.5469-51.3828c27.0745,0,50.0667,19.0596,53.9258,43.9536c-3.2244,0.5269-6.3184,1.4382-9.2334,2.6948   c-2.488-21.3606-21.5725-38.0352-44.6924-38.0352c-24.8047,0-44.9844,19.1875-44.9844,42.7695c0,2.2109,1.7891,4,4,4s4-1.7891,4-4   c0-19.1719,16.5898-34.7695,36.9844-34.7695c20.3152,0,36.844,15.479,36.9724,34.5486c-5.0938,3.802-9.2434,8.7778-11.8123,14.7209   c-0.0586,0-0.1133,0-0.1719,0C86.8477,109.8099,72,124.5013,72,142.56c0,18.0585,14.8477,32.7499,33.1016,32.7499   c0.3164,0,0.6328-0.0039,0.9453-0.0117c0.1055,0.0078,0.2148,0.0117,0.3203,0.0117h70.8555c0.2461,0,0.4883-0.0234,0.7266-0.0703   C192.6016,174.224,204,162.1654,204,147.56C204,133.099,192.7656,121.1849,178.4805,119.9193z M177.0117,167.2826   c-0.0977,0.0078-0.1953,0.0156-0.293,0.0273h-69.875c-0.2188-0.0273-0.4453-0.0352-0.6523-0.0234   C91.9062,167.8802,80,156.5677,80,142.56c0-13.6485,11.2617-24.7501,25.1016-24.7501c0.8398,0,1.668,0.0391,2.4883,0.1172   c1.8281,0.2109,3.5781-0.9492,4.1719-2.7109c3.9844-11.9062,15.543-19.9062,28.7695-19.9062c4.5803,0,8.9087,0.998,12.8008,2.7319   c0.6023,0.6384,1.4211,1.0208,2.332,1.1545c8.9724,4.9463,15.0312,14.1226,15.0312,24.6448c0,1.0938,0.4492,2.1406,1.2383,2.8945   c0.793,0.7539,1.8594,1.1641,2.9492,1.1016c0.3555-0.0156,0.7148-0.0273,1.0781-0.0273c11.0508,0,20.0391,8.8594,20.0391,19.7501   C196,158.0795,187.6602,166.7435,177.0117,167.2826z"/>
</g>
<path fill="#FF5D5D" d="M160.3854,22.1416c-1.0234,0-2.0479-0.3906-2.8281-1.1719c-1.5625-1.5615-1.5625-4.0947,0-5.6562  l14.1426-14.1416c1.5625-1.5625,4.0957-1.5625,5.6562,0c1.5625,1.5615,1.5625,4.0947,0,5.6562l-14.1426,14.1416  C162.4323,21.751,161.4088,22.1416,160.3854,22.1416z"/>
<path fill="#FF5D5D" d="M174.528,22.1426c-1.0234,0-2.0479-0.3906-2.8281-1.1719L157.5573,6.8281  c-1.5625-1.5615-1.5625-4.0947,0-5.6562c1.5605-1.5625,4.0957-1.5625,5.6562,0l14.1426,14.1426  c1.5625,1.5615,1.5625,4.0947,0,5.6562C176.5758,21.752,175.5514,22.1426,174.528,22.1426z"/>
<path fill="#00D40B" d="M130.3854,206.1416c-7.7197,0-14-6.2803-14-14s6.2803-14,14-14s14,6.2803,14,14  S138.1051,206.1416,130.3854,206.1416z M130.3854,186.1416c-3.3086,0-6,2.6914-6,6s2.6914,6,6,6c3.3086,0,6-2.6914,6-6  S133.694,186.1416,130.3854,186.1416z"/>
<path fill="#FFC504" d="M19.6989,164.7695c-1.0605,0-2.0781-0.4219-2.8281-1.1719L5.5573,152.2832  c-1.5625-1.5615-1.5625-4.0947,0-5.6562l11.3135-11.3135c1.5605-1.5625,4.0957-1.5625,5.6562,0l11.3135,11.3135  c1.5625,1.5615,1.5625,4.0947,0,5.6562L22.527,163.5977C21.777,164.3477,20.7594,164.7695,19.6989,164.7695z M14.0416,149.4551  l5.6572,5.6572l5.6572-5.6572l-5.6572-5.6562L14.0416,149.4551z"/>
</svg>
