<?xml version="1.0" encoding="iso-8859-1"?>
<!-- Generator: Adobe Illustrator 19.0.0, SVG Export Plug-In . SVG Version: 6.00 Build 0)  -->
<svg version="1.1" id="Layer_1" xmlns="http://www.w3.org/2000/svg" xmlns:xlink="http://www.w3.org/1999/xlink" x="0px" y="0px"
	 viewBox="0 0 512 512" style="enable-background:new 0 0 512 512;" xml:space="preserve">
<path style="fill:#D80029;" d="M467.915,271.305C446.916,173.557,360.023,100.281,256,100.281
	c-103.808,0-190.563,72.974-211.789,170.42c-1.761,8.084-3.076,16.336-3.907,24.729c0.864-0.062,1.732-0.106,2.614-0.106
	c10.593,0,20.099,4.609,26.659,11.917c0.456-8.798,1.531-17.431,3.163-25.866c2.653-13.706,6.794-26.882,12.268-39.342
	c2.358-5.368,4.961-10.602,7.796-15.691c0.709-1.272,1.431-2.535,2.169-3.789c1.475-2.507,3.006-4.977,4.592-7.408
	s3.228-4.822,4.923-7.172c3.39-4.7,6.993-9.237,10.795-13.595c0.951-1.089,1.913-2.168,2.889-3.235
	c2.925-3.201,5.962-6.3,9.102-9.291c1.047-0.997,2.104-1.981,3.175-2.954c2.139-1.945,4.324-3.842,6.552-5.687
	c4.456-3.691,9.086-7.178,13.877-10.449c2.395-1.636,4.83-3.216,7.304-4.741c13.605-8.386,28.367-15.076,43.991-19.774
	c2.841-0.854,5.71-1.643,8.606-2.363c14.48-3.603,29.629-5.515,45.224-5.515c31.182,0,60.578,7.645,86.416,21.164
	c2.584,1.352,5.132,2.763,7.643,4.23c1.255,0.733,2.501,1.482,3.738,2.244c4.946,3.048,9.739,6.321,14.365,9.803
	c2.313,1.741,4.584,3.535,6.812,5.38c2.228,1.844,4.412,3.74,6.551,5.684c1.069,0.972,2.128,1.956,3.174,2.953
	c5.232,4.982,10.177,10.264,14.804,15.82c2.777,3.333,5.439,6.765,7.982,10.289c0.847,1.175,1.681,2.36,2.502,3.554
	c1.642,2.389,3.228,4.819,4.759,7.288c0.766,1.234,1.518,2.478,2.255,3.731c2.212,3.759,4.296,7.603,6.246,11.524
	c1.3,2.614,2.541,5.264,3.721,7.946c2.359,5.365,4.472,10.861,6.328,16.477c0.928,2.807,1.79,5.644,2.586,8.509
	c0.398,1.432,0.779,2.871,1.143,4.318c0.729,2.892,1.39,5.811,1.982,8.755c0.088,0.442,0.166,0.889,0.251,1.332
	c1.629,8.411,2.703,17.018,3.16,25.791c6.557-7.262,16.033-11.836,26.588-11.836c0.907,0,1.801,0.045,2.69,0.111
	C470.886,287.248,469.611,279.198,467.915,271.305z"/>
<path style="fill:#005ECF;" d="M439.259,281.369c-0.085-0.443-0.162-0.89-0.251-1.332c-0.592-2.944-1.253-5.863-1.982-8.755
	c-0.364-1.446-0.746-2.886-1.143-4.318c-0.795-2.864-1.658-5.701-2.586-8.509c-1.854-5.615-3.968-11.111-6.328-16.477
	c-1.18-2.682-2.42-5.332-3.721-7.946c-1.95-3.922-4.034-7.765-6.246-11.524c-0.737-1.253-1.489-2.497-2.255-3.731
	c-1.531-2.469-3.119-4.898-4.759-7.288c-0.821-1.195-1.655-2.38-2.502-3.554c-2.543-3.523-5.205-6.955-7.982-10.289
	c-4.627-5.556-9.572-10.838-14.804-15.82c-1.047-0.997-2.105-1.98-3.174-2.953c-2.139-1.944-4.323-3.84-6.551-5.684
	c-2.228-1.844-4.499-3.638-6.812-5.38c-4.626-3.483-9.419-6.755-14.365-9.803c-1.237-0.762-2.483-1.51-3.738-2.244
	c-2.511-1.468-5.059-2.879-7.643-4.23c-25.838-13.518-55.234-21.164-86.416-21.164c-15.595,0-30.744,1.912-45.224,5.515
	c-2.896,0.72-5.765,1.508-8.606,2.363c-15.625,4.697-30.387,11.387-43.991,19.774c-2.474,1.525-4.909,3.105-7.304,4.741
	c-4.791,3.27-9.421,6.758-13.877,10.449c-2.228,1.845-4.412,3.741-6.552,5.687c-1.069,0.972-2.128,1.957-3.175,2.954
	c-3.14,2.99-6.175,6.09-9.102,9.291c-0.975,1.067-1.939,2.145-2.889,3.235c-3.802,4.359-7.406,8.895-10.795,13.595
	c-1.695,2.351-3.336,4.742-4.923,7.172c-1.587,2.431-3.118,4.901-4.592,7.408c-0.737,1.254-1.461,2.516-2.169,3.789
	c-2.834,5.089-5.438,10.323-7.796,15.691c-5.473,12.459-9.615,25.636-12.268,39.342c-1.633,8.434-2.708,17.068-3.163,25.866
	c1.973,2.199,3.692,4.632,5.079,7.271c5.078-9.663,14.445-16.703,25.565-18.636c1.221-9.063,3.222-17.878,5.918-26.382
	C126.292,205.919,185.757,159.844,256,159.844s129.708,46.076,149.862,109.649c2.698,8.51,4.7,17.328,5.92,26.396
	c11.086,1.953,20.422,8.983,25.488,18.622c1.404-2.67,3.145-5.132,5.149-7.351C441.961,298.388,440.887,289.78,439.259,281.369z"/>
<path style="fill:#FED322;" d="M405.862,269.494C385.708,205.921,326.243,159.845,256,159.845S126.292,205.92,106.138,269.493
	c-2.696,8.505-4.698,17.319-5.918,26.382c2.007-0.349,4.065-0.551,6.171-0.551c9.486,0,17.998,3.693,24.296,9.712
	c0.996-10.513,3.292-20.646,6.712-30.245c17.365-48.736,63.902-83.628,118.601-83.628c54.698,0,101.235,34.891,118.6,83.626
	c3.417,9.589,5.711,19.711,6.709,30.212c6.276-5.997,14.756-9.675,24.224-9.675c2.134,0,4.217,0.208,6.249,0.566
	C410.563,286.822,408.56,278.003,405.862,269.494z"/>
<g>
	<path style="fill:#EEBF00;" d="M374.601,274.788c3.417,9.589,5.711,19.711,6.709,30.212c6.276-5.997,14.756-9.675,24.224-9.675
		c2.134,0,4.217,0.208,6.249,0.566c-1.221-9.068-3.222-17.887-5.92-26.396C396.93,268.923,386.414,270.148,374.601,274.788z"/>
	<path style="fill:#EEBF00;" d="M106.139,269.494c-2.696,8.505-4.698,17.319-5.918,26.382c2.007-0.349,4.065-0.551,6.171-0.551
		c9.486,0,17.998,3.693,24.296,9.712c0.996-10.513,3.292-20.646,6.712-30.245C125.586,270.149,115.071,268.923,106.139,269.494z"/>
</g>
<g>
	<path style="fill:#004FAE;" d="M73.097,281.837c-0.113-0.159-0.239-0.308-0.358-0.463c-1.633,8.434-2.708,17.068-3.163,25.866
		c1.973,2.199,3.692,4.632,5.079,7.271c5.078-9.663,14.445-16.703,25.565-18.636c1.221-9.063,3.222-17.878,5.918-26.382
		C85.325,270.821,73.097,281.837,73.097,281.837z"/>
	<path style="fill:#004FAE;" d="M438.897,281.837c0,0-12.224-11.014-33.034-12.343c2.698,8.51,4.7,17.328,5.92,26.396
		c11.086,1.953,20.422,8.983,25.488,18.622c1.404-2.67,3.145-5.132,5.149-7.351c-0.458-8.772-1.533-17.38-3.16-25.791
		C439.138,281.526,439.011,281.676,438.897,281.837z"/>
</g>
<g>
	<path style="fill:#C60024;" d="M467.915,271.305c-4.782,0.148-21.876,1.293-28.656,10.064c1.628,8.411,2.703,17.018,3.16,25.791
		c6.557-7.262,16.034-11.836,26.588-11.836c0.907,0,1.801,0.045,2.69,0.111C470.886,287.248,469.611,279.198,467.915,271.305z"/>
	<path style="fill:#C60024;" d="M44.211,270.701c-1.761,8.084-3.076,16.336-3.907,24.729c0.864-0.062,1.732-0.106,2.614-0.106
		c10.593,0,20.099,4.609,26.659,11.917c0.456-8.798,1.531-17.431,3.163-25.866C64.844,271.153,44.324,270.703,44.211,270.701z"/>
</g>
<g>
	<polygon style="fill:#CD2A01;" points="69.576,307.242 69.576,307.241 69.576,307.241 	"/>
	<path style="fill:#CD2A01;" d="M150.874,162.762c2.395-1.636,4.83-3.216,7.304-4.741
		C155.705,159.547,153.27,161.127,150.874,162.762z"/>
	<path style="fill:#CD2A01;" d="M342.417,151.534c2.584,1.352,5.132,2.763,7.643,4.23
		C347.549,154.296,345.001,152.885,342.417,151.534z"/>
	<path style="fill:#CD2A01;" d="M104.487,207.974c3.39-4.7,6.993-9.237,10.795-13.595
		C111.48,198.737,107.876,203.273,104.487,207.974z"/>
	<path style="fill:#CD2A01;" d="M202.17,138.248c2.841-0.854,5.71-1.643,8.606-2.363C207.88,136.606,205.011,137.394,202.17,138.248
		z"/>
	<path style="fill:#CD2A01;" d="M130.447,178.898c2.139-1.945,4.324-3.842,6.552-5.687
		C134.77,175.057,132.586,176.953,130.447,178.898z"/>
	<path style="fill:#CD2A01;" d="M85.007,242.033c2.358-5.368,4.961-10.602,7.796-15.691
		C89.968,231.432,87.365,236.666,85.007,242.033z"/>
	<path style="fill:#CD2A01;" d="M353.798,158.007c4.946,3.048,9.739,6.321,14.365,9.803
		C363.537,164.327,358.743,161.055,353.798,158.007z"/>
	<path style="fill:#CD2A01;" d="M99.564,215.146c1.587-2.431,3.228-4.822,4.923-7.172
		C102.791,210.324,101.15,212.716,99.564,215.146z"/>
	<path style="fill:#CD2A01;" d="M94.971,222.554c1.475-2.507,3.006-4.977,4.592-7.408C97.977,217.577,96.445,220.046,94.971,222.554
		z"/>
	<path style="fill:#CD2A01;" d="M437.025,271.283c0.729,2.892,1.39,5.811,1.982,8.755
		C438.416,277.094,437.754,274.175,437.025,271.283z"/>
	<path style="fill:#CD2A01;" d="M127.272,181.853c-3.14,2.99-6.175,6.09-9.102,9.291
		C121.097,187.942,124.132,184.844,127.272,181.853z"/>
	<path style="fill:#CD2A01;" d="M368.163,167.81c2.313,1.741,4.584,3.535,6.812,5.38
		C372.748,171.345,370.476,169.552,368.163,167.81z"/>
	<path style="fill:#CD2A01;" d="M433.296,258.456c0.928,2.807,1.79,5.644,2.586,8.509
		C435.086,264.101,434.224,261.264,433.296,258.456z"/>
	<path style="fill:#CD2A01;" d="M85.007,242.033c-5.473,12.459-9.615,25.635-12.268,39.342l0,0
		C75.392,267.669,79.533,254.493,85.007,242.033z"/>
	<path style="fill:#CD2A01;" d="M72.739,281.375c-1.633,8.434-2.708,17.068-3.163,25.866l0,0
		C70.032,298.443,71.107,289.809,72.739,281.375L72.739,281.375z"/>
	<path style="fill:#CD2A01;" d="M399.504,197.647c-4.627-5.556-9.571-10.838-14.804-15.82
		C389.933,186.809,394.877,192.091,399.504,197.647z"/>
	<path style="fill:#CD2A01;" d="M399.504,197.647c2.777,3.333,5.439,6.765,7.982,10.289
		C404.943,204.412,402.28,200.98,399.504,197.647z"/>
	<path style="fill:#CD2A01;" d="M374.975,173.19c2.228,1.844,4.412,3.74,6.551,5.684
		C379.388,176.929,377.203,175.034,374.975,173.19z"/>
	<path style="fill:#CD2A01;" d="M423.249,234.033c1.3,2.614,2.541,5.264,3.721,7.946
		C425.79,239.297,424.549,236.648,423.249,234.033z"/>
	<path style="fill:#CD2A01;" d="M409.988,211.49c1.642,2.389,3.228,4.819,4.759,7.288
		C413.216,216.309,411.629,213.879,409.988,211.49z"/>
	<path style="fill:#CD2A01;" d="M417.002,222.509c2.212,3.759,4.296,7.603,6.246,11.524
		C421.298,230.111,419.214,226.267,417.002,222.509z"/>
</g>
<g>
	<path style="fill:#E5197C;" d="M396.416,350.266c-2.199-4.455-4.917-9.743-4.917-19.11c0-10.322,4.222-19.618,11.066-26.156
		c3.808-3.639,8.431-6.416,13.591-8.045c-1.423-0.44-2.881-0.803-4.373-1.066c-2.031-0.358-4.114-0.566-6.249-0.566
		c-9.468,0-17.947,3.678-24.224,9.675c-6.842,6.538-11.066,15.835-11.066,26.156c0,9.367,2.718,14.655,4.917,19.11
		c9.079,18.392,62.109,62.337,62.109,62.337s4.299-3.544,10.652-9.035C431.958,389.712,402.918,363.438,396.416,350.266z"/>
	<path style="fill:#E5197C;" d="M33.8,350.266c-2.199-4.455-4.917-9.743-4.917-19.11c0-16.078,10.237-29.67,24.689-34.204
		c-3.366-1.051-6.941-1.627-10.655-1.627c-0.881,0-1.751,0.043-2.614,0.106c-18.521,1.342-32.674,16.818-32.674,35.726
		c0,9.367,2.718,14.655,4.917,19.11c9.079,18.392,62.109,62.337,62.109,62.337s4.299-3.544,10.652-9.035
		C69.342,389.712,40.302,363.438,33.8,350.266z"/>
</g>
<g>
	<path style="fill:#EB358A;" d="M479.608,296.951c-2.522-0.789-5.167-1.311-7.91-1.516c-0.888-0.066-1.783-0.111-2.69-0.111
		c-7.898,0-15.192,2.562-21.111,6.895c-1.991,1.458-3.827,3.114-5.477,4.941c-2.004,2.219-3.745,4.681-5.149,7.351
		c-4.384-8.343-11.969-14.722-21.115-17.556c-5.159,1.627-9.782,4.405-13.591,8.045c-6.842,6.538-11.066,15.835-11.066,26.156
		c0,9.367,2.718,14.655,4.917,19.11c6.502,13.171,35.542,39.444,51.506,53.301c16.058-13.879,45.256-40.212,51.457-53.301
		c2.115-4.462,4.993-10.155,4.993-19.11C504.371,315.076,494.082,301.483,479.608,296.951z"/>
	<path style="fill:#EB358A;" d="M130.688,305.035c-3.827-3.657-8.475-6.448-13.658-8.081c-3.347-1.055-6.916-1.631-10.638-1.631
		c-2.107,0-4.164,0.202-6.171,0.551c-5.515,0.959-10.597,3.177-14.94,6.345c-4.414,3.219-8.065,7.421-10.625,12.291
		c-1.386-2.639-3.104-5.072-5.079-7.271l0,0c-4.26-4.746-9.768-8.343-16.004-10.289c-14.452,4.534-24.689,18.126-24.689,34.204
		c0,9.367,2.718,14.655,4.917,19.11c6.502,13.171,35.542,39.444,51.506,53.301c16.058-13.879,45.256-40.212,51.457-53.301
		c2.115-4.462,4.992-10.155,4.992-19.11C141.756,320.853,137.527,311.573,130.688,305.035z"/>
</g>
<g>
	<polygon style="fill:#D80029;" points="100.259,84.386 81.818,65.946 92.606,55.156 100.259,62.81 107.833,55.235 118.622,66.023 	
		"/>
	<polygon style="fill:#D80029;" points="437.348,90.909 418.906,72.468 429.694,61.68 437.348,69.333 444.921,61.758 
		455.709,72.548 	"/>
	<polygon style="fill:#D80029;" points="295.019,342.322 276.578,323.882 287.366,313.093 295.019,320.745 302.593,313.172 
		313.382,323.962 	"/>
	<polygon style="fill:#D80029;" points="167.498,456.844 149.057,438.403 159.845,427.614 167.498,435.267 175.071,427.694 
		185.861,438.481 	"/>
</g>
<path d="M5.705,353.642c9.524,19.295,58.525,60.23,64.081,64.834l4.855,4.024l4.865-4.011c5.606-4.622,55.029-45.708,64.15-64.956
	l0.245-0.517c2.183-4.592,5.482-11.532,5.482-21.861c0-10.796-3.788-20.879-10.727-28.801
	c7.299-59.279,57.153-103.563,117.343-103.563c60.172,0,110.023,44.269,117.339,103.529c-6.936,7.923-10.723,18.019-10.723,28.837
	c0,10.943,3.214,17.445,5.56,22.194l0.145,0.292c9.524,19.296,58.525,60.23,64.081,64.834l4.855,4.024l4.865-4.011
	c5.606-4.622,55.029-45.708,64.15-64.956l0.245-0.517c2.183-4.592,5.483-11.532,5.483-21.861c0-20.805-13.965-38.023-33.383-42.383
	c-6.651-52.841-31.904-101.529-71.54-137.642C365.689,113.423,312.034,92.654,256,92.654c-56.033,0-109.687,20.767-151.075,58.476
	c-39.633,36.11-64.885,84.792-71.539,137.628C13.965,293.087,0,310.309,0,331.156c0,10.943,3.214,17.445,5.56,22.194L5.705,353.642z
	 M346.076,218.499c-24.653-22.548-56.643-34.966-90.076-34.966c-33.44,0-65.435,12.423-90.089,34.978
	c-21.371,19.553-35.672,45.244-41.042,73.344c-0.115-0.055-0.233-0.103-0.349-0.157c-0.293-0.136-0.588-0.267-0.884-0.397
	c-0.32-0.141-0.642-0.281-0.966-0.413c-0.298-0.122-0.598-0.238-0.898-0.353c-0.328-0.125-0.655-0.25-0.986-0.367
	c-0.304-0.108-0.609-0.21-0.916-0.31c-0.334-0.11-0.666-0.219-1.003-0.32c-0.31-0.094-0.621-0.181-0.934-0.268
	c-0.337-0.094-0.674-0.186-1.014-0.271c-0.316-0.079-0.635-0.153-0.953-0.225c-0.341-0.077-0.68-0.153-1.023-0.222
	c-0.322-0.065-0.646-0.124-0.969-0.181c-0.344-0.061-0.688-0.12-1.033-0.173c-0.327-0.05-0.654-0.094-0.983-0.136
	c-0.347-0.045-0.695-0.087-1.044-0.124c-0.332-0.035-0.663-0.063-0.996-0.091c-0.205-0.016-0.409-0.042-0.615-0.056
	c0.04-0.198,0.075-0.398,0.116-0.595c0.104-0.514,0.214-1.025,0.322-1.537c0.125-0.588,0.252-1.175,0.385-1.76
	c0.116-0.513,0.237-1.023,0.358-1.534c0.138-0.581,0.278-1.161,0.423-1.738c0.127-0.509,0.258-1.016,0.392-1.523
	c0.151-0.574,0.303-1.146,0.46-1.717c0.139-0.507,0.282-1.012,0.426-1.517c0.163-0.567,0.328-1.132,0.496-1.696
	c0.15-0.5,0.302-1,0.457-1.498c0.175-0.564,0.354-1.124,0.536-1.684c0.161-0.495,0.322-0.991,0.488-1.484
	c0.187-0.557,0.378-1.112,0.573-1.666c0.171-0.49,0.343-0.981,0.519-1.468c0.198-0.55,0.403-1.099,0.608-1.646
	c0.182-0.486,0.364-0.972,0.551-1.457c0.211-0.545,0.427-1.086,0.644-1.629c0.192-0.479,0.382-0.959,0.58-1.435
	c0.225-0.544,0.455-1.083,0.686-1.624c0.2-0.469,0.399-0.939,0.603-1.405c0.238-0.543,0.484-1.082,0.728-1.622
	c0.208-0.458,0.412-0.915,0.624-1.37c0.253-0.543,0.514-1.082,0.773-1.622c0.215-0.447,0.426-0.894,0.645-1.339
	c0.269-0.545,0.545-1.085,0.821-1.626c0.22-0.431,0.434-0.866,0.658-1.294c0.293-0.564,0.595-1.121,0.895-1.68
	c0.215-0.4,0.425-0.803,0.643-1.2c0.334-0.608,0.677-1.21,1.019-1.814c0.194-0.344,0.384-0.691,0.582-1.031
	c0.541-0.936,1.09-1.867,1.651-2.789c0.102-0.167,0.208-0.332,0.309-0.497c0.465-0.759,0.932-1.516,1.41-2.264
	c0.222-0.348,0.451-0.691,0.675-1.036c0.365-0.564,0.728-1.127,1.102-1.685c0.258-0.387,0.523-0.767,0.784-1.15
	c0.348-0.511,0.694-1.022,1.048-1.528c0.28-0.4,0.567-0.794,0.85-1.192c0.345-0.482,0.688-0.966,1.039-1.444
	c0.294-0.402,0.595-0.798,0.894-1.198c0.349-0.467,0.697-0.934,1.051-1.397c0.307-0.401,0.619-0.796,0.931-1.194
	c0.355-0.453,0.708-0.907,1.068-1.356c0.318-0.397,0.641-0.789,0.963-1.183c0.361-0.441,0.722-0.884,1.089-1.321
	c0.328-0.392,0.66-0.779,0.992-1.168c0.369-0.432,0.738-0.864,1.113-1.292c0.339-0.388,0.68-0.771,1.023-1.154
	c0.375-0.42,0.751-0.839,1.13-1.255c0.348-0.381,0.7-0.76,1.052-1.138c0.382-0.411,0.767-0.821,1.154-1.227
	c0.356-0.374,0.715-0.746,1.075-1.116c0.392-0.403,0.785-0.804,1.182-1.202c0.364-0.366,0.73-0.73,1.099-1.093
	c0.399-0.394,0.801-0.784,1.204-1.173c0.372-0.359,0.747-0.716,1.123-1.071c0.408-0.385,0.82-0.768,1.232-1.149
	c0.378-0.35,0.759-0.698,1.141-1.044c0.417-0.377,0.837-0.751,1.258-1.124c0.385-0.341,0.771-0.68,1.161-1.018
	c0.428-0.37,0.859-0.736,1.291-1.103c0.39-0.33,0.779-0.66,1.172-0.986c0.437-0.363,0.879-0.721,1.32-1.078
	c0.396-0.32,0.791-0.642,1.19-0.959c0.448-0.355,0.899-0.705,1.351-1.056c0.4-0.31,0.797-0.62,1.2-0.927
	c0.46-0.349,0.924-0.692,1.387-1.035c0.402-0.298,0.803-0.599,1.208-0.893c0.475-0.345,0.955-0.684,1.434-1.023
	c0.4-0.283,0.797-0.569,1.199-0.848c0.495-0.344,0.997-0.68,1.496-1.019c0.394-0.266,0.785-0.536,1.181-0.798
	c0.521-0.346,1.048-0.683,1.574-1.021c0.381-0.246,0.76-0.496,1.144-0.739c0.583-0.369,1.173-0.728,1.761-1.089
	c0.332-0.203,0.659-0.411,0.992-0.612c0.923-0.556,1.851-1.104,2.786-1.64c0.084-0.049,0.171-0.095,0.256-0.143
	c0.852-0.487,1.709-0.967,2.57-1.438c0.348-0.19,0.7-0.372,1.049-0.558c0.605-0.324,1.209-0.65,1.82-0.966
	c0.4-0.206,0.804-0.406,1.204-0.609c0.564-0.286,1.126-0.574,1.694-0.852c0.43-0.212,0.865-0.415,1.298-0.622
	c0.545-0.261,1.089-0.524,1.638-0.779c0.446-0.206,0.895-0.407,1.343-0.609c0.542-0.245,1.083-0.492,1.63-0.731
	c0.455-0.199,0.912-0.392,1.369-0.587c0.543-0.232,1.086-0.464,1.633-0.69c0.465-0.192,0.933-0.377,1.4-0.565
	c0.543-0.218,1.086-0.435,1.633-0.647c0.473-0.183,0.949-0.361,1.424-0.539c0.546-0.205,1.092-0.41,1.642-0.608
	c0.48-0.174,0.962-0.343,1.444-0.512c0.548-0.192,1.096-0.383,1.648-0.569c0.487-0.165,0.976-0.324,1.466-0.484
	c0.551-0.18,1.105-0.358,1.659-0.531c0.491-0.154,0.985-0.304,1.478-0.453c0.558-0.168,1.117-0.334,1.677-0.495
	c0.494-0.142,0.99-0.283,1.486-0.42c0.562-0.157,1.127-0.309,1.693-0.459c0.499-0.132,1-0.262,1.501-0.39
	c0.567-0.143,1.135-0.284,1.704-0.421c0.503-0.121,1.007-0.241,1.513-0.358c0.573-0.131,1.146-0.258,1.721-0.383
	c0.506-0.11,1.011-0.22,1.518-0.324c0.579-0.12,1.16-0.234,1.741-0.347c0.508-0.099,1.014-0.197,1.524-0.29
	c0.585-0.107,1.171-0.207,1.758-0.308c0.509-0.087,1.017-0.175,1.528-0.256c0.594-0.096,1.19-0.183,1.786-0.271
	c0.506-0.074,1.011-0.152,1.518-0.221c0.605-0.083,1.212-0.158,1.82-0.234c0.502-0.063,1.004-0.128,1.508-0.185
	c0.618-0.07,1.239-0.132,1.859-0.195c0.495-0.05,0.991-0.104,1.487-0.15c0.638-0.058,1.279-0.107,1.918-0.157
	c0.482-0.038,0.964-0.08,1.447-0.113c0.671-0.046,1.346-0.08,2.019-0.118c0.455-0.025,0.908-0.055,1.364-0.076
	c0.75-0.035,1.501-0.056,2.253-0.078c0.382-0.011,0.764-0.03,1.146-0.039c1.136-0.026,2.274-0.04,3.416-0.04
	c1.141,0,2.279,0.014,3.416,0.04c0.38,0.009,0.759,0.026,1.138,0.038c0.755,0.023,1.51,0.045,2.263,0.079
	c0.453,0.02,0.902,0.051,1.354,0.075c0.677,0.037,1.354,0.072,2.029,0.118c0.48,0.033,0.958,0.075,1.437,0.112
	c0.644,0.05,1.289,0.099,1.931,0.158c0.492,0.045,0.983,0.099,1.474,0.148c0.626,0.063,1.251,0.125,1.875,0.196
	c0.497,0.057,0.994,0.121,1.49,0.183c0.613,0.076,1.228,0.152,1.839,0.236c0.502,0.069,1.003,0.144,1.503,0.219
	c0.601,0.089,1.202,0.177,1.801,0.274c0.506,0.081,1.008,0.168,1.511,0.254c0.593,0.102,1.186,0.203,1.777,0.311
	c0.502,0.093,1.004,0.189,1.505,0.287c0.587,0.114,1.174,0.229,1.76,0.35c0.5,0.104,1,0.212,1.498,0.319
	c0.582,0.126,1.164,0.255,1.743,0.389c0.497,0.115,0.993,0.233,1.489,0.352c0.578,0.139,1.154,0.281,1.73,0.427
	c0.492,0.125,0.984,0.252,1.475,0.382c0.575,0.153,1.148,0.307,1.72,0.467c0.487,0.135,0.972,0.273,1.458,0.412
	c0.572,0.165,1.142,0.335,1.712,0.506c0.481,0.145,0.961,0.291,1.44,0.441c0.57,0.178,1.137,0.361,1.704,0.545
	c0.474,0.155,0.947,0.309,1.419,0.469c0.568,0.191,1.132,0.388,1.697,0.586c0.468,0.164,0.936,0.328,1.402,0.496
	c0.563,0.204,1.125,0.414,1.685,0.625c0.461,0.173,0.922,0.345,1.379,0.522c0.567,0.219,1.129,0.445,1.692,0.67
	c0.445,0.179,0.893,0.356,1.337,0.539c0.574,0.236,1.143,0.48,1.714,0.723c0.429,0.183,0.861,0.364,1.289,0.551
	c0.58,0.254,1.155,0.516,1.731,0.777c0.413,0.187,0.828,0.371,1.239,0.562c0.594,0.276,1.184,0.56,1.774,0.844
	c0.387,0.186,0.776,0.368,1.162,0.557c0.629,0.309,1.253,0.627,1.877,0.944c0.341,0.173,0.685,0.342,1.023,0.518
	c0.716,0.371,1.426,0.752,2.135,1.134c0.243,0.131,0.489,0.257,0.731,0.39c1.909,1.042,3.794,2.124,5.653,3.246
	c0.221,0.133,0.437,0.272,0.657,0.406c0.702,0.428,1.404,0.858,2.098,1.299c0.309,0.195,0.613,0.398,0.921,0.595
	c0.6,0.387,1.201,0.772,1.796,1.167c0.344,0.228,0.684,0.463,1.025,0.694c0.552,0.373,1.105,0.745,1.652,1.125
	c0.358,0.249,0.712,0.503,1.068,0.756c0.525,0.371,1.05,0.743,1.57,1.12c0.364,0.264,0.723,0.534,1.085,0.802
	c0.506,0.374,1.011,0.749,1.511,1.129c0.365,0.278,0.726,0.559,1.088,0.84c0.49,0.38,0.981,0.76,1.467,1.146
	c0.364,0.289,0.724,0.582,1.085,0.875c0.477,0.385,0.953,0.773,1.425,1.165c0.361,0.3,0.719,0.603,1.078,0.906
	c0.466,0.394,0.93,0.789,1.39,1.188c0.355,0.308,0.708,0.619,1.061,0.931c0.456,0.403,0.91,0.807,1.361,1.216
	c0.351,0.317,0.699,0.637,1.047,0.958c0.445,0.411,0.889,0.823,1.328,1.239c0.345,0.326,0.688,0.653,1.029,0.983
	c0.436,0.42,0.871,0.843,1.302,1.268c0.337,0.332,0.671,0.664,1.005,1c0.429,0.431,0.855,0.866,1.28,1.302
	c0.328,0.338,0.655,0.675,0.98,1.016c0.422,0.442,0.84,0.888,1.256,1.336c0.319,0.343,0.639,0.687,0.954,1.032
	c0.413,0.453,0.822,0.908,1.23,1.366c0.311,0.349,0.623,0.698,0.93,1.05c0.406,0.465,0.808,0.933,1.208,1.403
	c0.3,0.352,0.601,0.702,0.898,1.057c0.403,0.48,0.799,0.965,1.195,1.451c0.287,0.351,0.575,0.7,0.857,1.054
	c0.398,0.496,0.789,0.998,1.181,1.499c0.275,0.351,0.551,0.701,0.822,1.055c0.396,0.517,0.785,1.039,1.175,1.561
	c0.256,0.344,0.516,0.686,0.77,1.031c0.402,0.547,0.794,1.102,1.189,1.655c0.234,0.329,0.472,0.655,0.704,0.986
	c0.416,0.594,0.823,1.194,1.231,1.795c0.2,0.296,0.406,0.589,0.604,0.886c0.464,0.694,0.917,1.395,1.37,2.096
	c0.135,0.21,0.275,0.416,0.409,0.627c1.174,1.841,2.308,3.71,3.401,5.606c0.118,0.204,0.231,0.412,0.348,0.617
	c0.421,0.737,0.84,1.477,1.249,2.223c0.178,0.324,0.349,0.652,0.524,0.977c0.342,0.634,0.684,1.266,1.015,1.906
	c0.192,0.37,0.378,0.745,0.568,1.117c0.305,0.6,0.612,1.199,0.909,1.803c0.197,0.401,0.388,0.806,0.582,1.208
	c0.28,0.582,0.56,1.164,0.833,1.75c0.195,0.419,0.384,0.842,0.576,1.264c0.261,0.577,0.524,1.152,0.778,1.733
	c0.19,0.434,0.375,0.872,0.561,1.308c0.244,0.572,0.488,1.143,0.725,1.719c0.185,0.451,0.365,0.903,0.547,1.355
	c0.228,0.569,0.455,1.137,0.675,1.709c0.178,0.461,0.352,0.925,0.525,1.388c0.214,0.569,0.425,1.138,0.632,1.71
	c0.17,0.471,0.336,0.944,0.5,1.417c0.199,0.571,0.397,1.143,0.59,1.717c0.161,0.477,0.317,0.956,0.473,1.436
	c0.186,0.575,0.37,1.151,0.55,1.729c0.151,0.485,0.299,0.971,0.444,1.459c0.173,0.578,0.343,1.155,0.509,1.736
	c0.141,0.493,0.28,0.987,0.416,1.482c0.16,0.581,0.315,1.163,0.468,1.746c0.13,0.498,0.259,0.997,0.384,1.497
	c0.146,0.586,0.289,1.175,0.429,1.764c0.12,0.503,0.238,1.007,0.353,1.513c0.133,0.589,0.261,1.18,0.388,1.771
	c0.109,0.51,0.218,1.019,0.321,1.532c0.04,0.195,0.075,0.392,0.114,0.587c-0.219,0.014-0.435,0.041-0.654,0.058
	c-0.331,0.026-0.661,0.054-0.99,0.087c-0.35,0.037-0.699,0.08-1.048,0.125c-0.326,0.042-0.652,0.084-0.975,0.133
	c-0.347,0.053-0.693,0.113-1.038,0.174c-0.322,0.057-0.644,0.114-0.964,0.179c-0.342,0.068-0.681,0.144-1.02,0.222
	c-0.32,0.072-0.64,0.145-0.958,0.225c-0.336,0.084-0.668,0.175-1.001,0.268c-0.317,0.087-0.635,0.176-0.949,0.272
	c-0.327,0.099-0.651,0.204-0.974,0.311c-0.317,0.104-0.634,0.208-0.948,0.32c-0.315,0.112-0.629,0.231-0.942,0.351
	c-0.316,0.121-0.633,0.242-0.947,0.371c-0.304,0.124-0.605,0.256-0.906,0.388c-0.316,0.138-0.633,0.278-0.945,0.423
	c-0.103,0.048-0.207,0.09-0.309,0.138C381.753,263.732,367.448,238.047,346.076,218.499z M108.806,242.837
	c-0.29,0.575-0.572,1.154-0.855,1.732c-0.241,0.492-0.486,0.984-0.723,1.479c-0.286,0.598-0.561,1.2-0.84,1.801
	c-0.223,0.481-0.45,0.96-0.668,1.444c-0.285,0.631-0.558,1.266-0.836,1.9c-0.2,0.46-0.407,0.917-0.603,1.379
	c-0.303,0.711-0.593,1.428-0.886,2.143c-0.159,0.39-0.324,0.776-0.48,1.166c-0.44,1.102-0.87,2.209-1.287,3.321
	c-0.115,0.306-0.222,0.615-0.335,0.922c-0.299,0.814-0.599,1.627-0.886,2.445c-0.159,0.453-0.308,0.909-0.463,1.364
	c-0.231,0.677-0.464,1.355-0.686,2.035c-0.161,0.492-0.311,0.989-0.468,1.482c-0.204,0.647-0.411,1.294-0.607,1.944
	c-0.155,0.513-0.301,1.029-0.451,1.544c-0.185,0.637-0.372,1.272-0.55,1.911c-0.145,0.525-0.284,1.052-0.424,1.579
	c-0.169,0.632-0.339,1.263-0.5,1.898c-0.136,0.534-0.264,1.071-0.396,1.606c-0.154,0.632-0.308,1.263-0.456,1.898
	c-0.125,0.541-0.243,1.083-0.363,1.625c-0.139,0.632-0.278,1.262-0.41,1.896c-0.115,0.55-0.223,1.102-0.332,1.653
	c-0.124,0.63-0.247,1.26-0.365,1.892c-0.103,0.554-0.2,1.111-0.297,1.666c-0.065,0.375-0.137,0.749-0.2,1.125
	c-0.13,0.041-0.256,0.091-0.387,0.132c-0.481,0.157-0.96,0.319-1.435,0.492c-0.213,0.077-0.424,0.157-0.635,0.237
	c-0.461,0.176-0.917,0.36-1.371,0.551c-0.181,0.076-0.363,0.15-0.544,0.229c-0.625,0.273-1.244,0.557-1.854,0.858
	c-0.037,0.018-0.073,0.039-0.11,0.057c-0.572,0.285-1.136,0.584-1.695,0.893c-0.18,0.1-0.358,0.204-0.537,0.306
	c-0.422,0.242-0.841,0.49-1.255,0.746c-0.186,0.115-0.373,0.23-0.557,0.348c-0.448,0.286-0.89,0.58-1.326,0.882
	c-0.125,0.086-0.252,0.169-0.376,0.256c-0.553,0.39-1.096,0.792-1.632,1.208c-0.128,0.1-0.252,0.203-0.379,0.304
	c-0.406,0.322-0.807,0.651-1.201,0.988c-0.074,0.064-0.154,0.123-0.228,0.187c0.08-0.774,0.173-1.544,0.262-2.315
	c0.069-0.596,0.131-1.194,0.206-1.788c0.113-0.895,0.243-1.784,0.369-2.675c0.076-0.535,0.143-1.072,0.224-1.605
	c0.201-1.33,0.418-2.655,0.648-3.975c0.081-0.469,0.172-0.935,0.257-1.403c0.185-1.014,0.369-2.029,0.572-3.037
	c0.119-0.597,0.252-1.188,0.378-1.782c0.168-0.796,0.331-1.594,0.51-2.386c0.143-0.637,0.3-1.267,0.451-1.901
	c0.176-0.743,0.347-1.488,0.532-2.227c0.164-0.656,0.341-1.306,0.513-1.959c0.186-0.711,0.369-1.423,0.564-2.13
	c0.182-0.661,0.376-1.318,0.567-1.976c0.199-0.693,0.396-1.387,0.603-2.076c0.199-0.662,0.41-1.318,0.617-1.976
	c0.213-0.678,0.423-1.357,0.644-2.031c0.218-0.664,0.446-1.322,0.67-1.982c0.225-0.661,0.449-1.324,0.681-1.982
	c0.234-0.662,0.478-1.32,0.72-1.978c0.238-0.649,0.475-1.299,0.721-1.945c0.25-0.658,0.509-1.311,0.767-1.965
	c0.252-0.64,0.503-1.28,0.763-1.915c0.266-0.653,0.54-1.301,0.814-1.95c0.264-0.629,0.53-1.257,0.802-1.882
	c0.282-0.648,0.572-1.293,0.861-1.938c0.278-0.617,0.555-1.234,0.839-1.847c0.297-0.642,0.601-1.281,0.906-1.918
	c0.291-0.609,0.584-1.219,0.882-1.824c0.311-0.633,0.629-1.263,0.947-1.892c0.304-0.6,0.61-1.199,0.922-1.796
	c0.327-0.627,0.657-1.25,0.991-1.872c0.316-0.59,0.636-1.179,0.959-1.766c0.342-0.62,0.688-1.238,1.036-1.854
	c0.328-0.579,0.658-1.154,0.993-1.729c0.357-0.613,0.717-1.225,1.08-1.834c0.34-0.57,0.684-1.136,1.03-1.702
	c0.37-0.604,0.744-1.207,1.121-1.806c0.352-0.559,0.709-1.117,1.067-1.672c0.384-0.596,0.771-1.191,1.163-1.783
	c0.364-0.549,0.732-1.095,1.102-1.642c0.399-0.588,0.797-1.175,1.203-1.758c0.375-0.54,0.757-1.077,1.138-1.613
	c0.411-0.578,0.823-1.154,1.24-1.727c0.388-0.531,0.781-1.058,1.174-1.584c0.425-0.57,0.85-1.138,1.283-1.703
	c0.397-0.518,0.799-1.03,1.201-1.544c0.439-0.561,0.879-1.123,1.324-1.679c0.409-0.51,0.825-1.013,1.239-1.519
	c0.451-0.549,0.9-1.1,1.358-1.644c0.42-0.499,0.847-0.993,1.272-1.488c0.464-0.54,0.926-1.081,1.397-1.615
	c0.428-0.486,0.864-0.966,1.298-1.447c0.479-0.532,0.956-1.067,1.44-1.593c0.436-0.474,0.882-0.94,1.323-1.41
	c0.492-0.523,0.982-1.048,1.48-1.564c0.448-0.465,0.904-0.921,1.357-1.38c0.503-0.511,1.004-1.025,1.513-1.53
	c0.454-0.45,0.916-0.89,1.375-1.336c0.52-0.505,1.036-1.013,1.563-1.51c0.453-0.428,0.914-0.848,1.372-1.271
	c0.542-0.502,1.079-1.009,1.627-1.504c0.426-0.385,0.862-0.762,1.292-1.143c2.144-1.902,4.335-3.753,6.569-5.552
	c0.484-0.39,0.964-0.785,1.452-1.171c0.559-0.44,1.128-0.87,1.693-1.304c0.517-0.398,1.03-0.799,1.551-1.191
	c0.562-0.423,1.134-0.835,1.702-1.251c0.534-0.392,1.064-0.787,1.603-1.173c0.567-0.406,1.14-0.802,1.711-1.2
	c0.549-0.383,1.095-0.771,1.649-1.148c0.574-0.392,1.154-0.773,1.732-1.158c0.56-0.373,1.119-0.749,1.683-1.116
	c0.58-0.376,1.165-0.744,1.749-1.113c0.574-0.363,1.145-0.728,1.723-1.085c0.585-0.361,1.176-0.714,1.766-1.068
	c0.585-0.352,1.168-0.705,1.757-1.05c0.592-0.347,1.189-0.686,1.785-1.026c0.596-0.34,1.191-0.681,1.791-1.014
	c0.598-0.333,1.201-0.657,1.803-0.983c0.606-0.328,1.212-0.656,1.823-0.976c0.605-0.318,1.214-0.63,1.824-0.941
	c0.615-0.314,1.231-0.629,1.85-0.937c0.612-0.304,1.229-0.602,1.845-0.899c0.625-0.301,1.25-0.602,1.88-0.896
	c0.617-0.289,1.238-0.573,1.859-0.854c0.636-0.289,1.271-0.576,1.911-0.856c0.624-0.275,1.25-0.544,1.878-0.812
	c0.645-0.275,1.291-0.547,1.939-0.815c0.629-0.259,1.259-0.515,1.892-0.767c0.656-0.261,1.313-0.52,1.972-0.774
	c0.634-0.244,1.269-0.485,1.906-0.722c0.663-0.247,1.328-0.49,1.995-0.729c0.641-0.23,1.283-0.457,1.926-0.679
	c0.672-0.233,1.346-0.46,2.021-0.685c0.645-0.215,1.291-0.427,1.939-0.634c0.682-0.218,1.366-0.43,2.051-0.641
	c0.649-0.199,1.298-0.397,1.949-0.588c0.692-0.203,1.385-0.4,2.08-0.595c0.652-0.183,1.305-0.366,1.96-0.542
	c0.701-0.188,1.405-0.369,2.11-0.549c0.655-0.168,1.309-0.335,1.966-0.495c0.712-0.174,1.428-0.339,2.144-0.503
	c0.655-0.151,1.311-0.303,1.969-0.447c0.724-0.159,1.452-0.307,2.181-0.457c0.655-0.134,1.31-0.272,1.968-0.399
	c0.734-0.142,1.473-0.275,2.21-0.408c0.658-0.119,1.314-0.241,1.974-0.352c0.748-0.126,1.499-0.242,2.25-0.359
	c0.654-0.102,1.306-0.207,1.962-0.303c0.769-0.111,1.542-0.211,2.314-0.312c0.644-0.084,1.286-0.174,1.932-0.252
	c0.787-0.095,1.579-0.176,2.369-0.261c0.638-0.068,1.272-0.142,1.912-0.203c0.811-0.078,1.625-0.141,2.439-0.209
	c0.622-0.052,1.242-0.11,1.866-0.155c0.862-0.062,1.727-0.109,2.593-0.159c0.58-0.034,1.158-0.075,1.739-0.103
	c0.964-0.047,1.934-0.075,2.902-0.106c0.487-0.015,0.971-0.04,1.46-0.052c1.458-0.035,2.919-0.054,4.385-0.054
	c1.466,0,2.926,0.018,4.384,0.054c0.49,0.012,0.976,0.037,1.466,0.052c0.966,0.032,1.933,0.06,2.895,0.106
	c0.576,0.027,1.149,0.069,1.724,0.102c0.872,0.05,1.743,0.097,2.612,0.16c0.609,0.044,1.215,0.101,1.822,0.151
	c0.829,0.068,1.659,0.133,2.485,0.213c0.627,0.06,1.25,0.133,1.876,0.2c0.802,0.085,1.604,0.169,2.403,0.264
	c0.634,0.076,1.264,0.164,1.896,0.247c0.786,0.104,1.573,0.204,2.356,0.317c0.635,0.092,1.267,0.194,1.9,0.293
	c0.774,0.121,1.548,0.239,2.318,0.37c0.636,0.108,1.267,0.225,1.901,0.34c0.763,0.137,1.527,0.275,2.287,0.422
	c0.631,0.122,1.258,0.253,1.887,0.382c0.758,0.156,1.516,0.31,2.269,0.476c0.626,0.137,1.248,0.282,1.872,0.425
	c0.751,0.173,1.501,0.346,2.249,0.528c0.619,0.151,1.236,0.309,1.852,0.466c0.746,0.19,1.491,0.381,2.233,0.582
	c0.613,0.165,1.224,0.337,1.835,0.508c0.738,0.208,1.477,0.417,2.211,0.633c0.606,0.179,1.21,0.363,1.815,0.547
	c0.734,0.225,1.467,0.453,2.197,0.687c0.597,0.191,1.192,0.388,1.787,0.585c0.73,0.243,1.46,0.488,2.186,0.74
	c0.587,0.203,1.173,0.411,1.757,0.619c0.728,0.261,1.455,0.526,2.179,0.796c0.575,0.215,1.148,0.431,1.72,0.652
	c0.727,0.28,1.452,0.565,2.174,0.853c0.563,0.225,1.125,0.453,1.684,0.683c0.724,0.298,1.445,0.602,2.166,0.909
	c0.551,0.236,1.102,0.473,1.65,0.713c0.722,0.317,1.44,0.641,2.157,0.967c0.538,0.245,1.077,0.491,1.612,0.742
	c0.72,0.337,1.436,0.68,2.151,1.026c0.525,0.254,1.051,0.508,1.573,0.767c0.72,0.357,1.435,0.721,2.15,1.088
	c0.508,0.26,1.016,0.52,1.522,0.785c0.723,0.379,1.442,0.768,2.159,1.158c0.489,0.265,0.98,0.53,1.467,0.799
	c0.726,0.403,1.448,0.815,2.169,1.228c0.469,0.269,0.94,0.535,1.406,0.808c0.733,0.429,1.46,0.868,2.186,1.306
	c0.447,0.27,0.895,0.537,1.34,0.811c0.742,0.457,1.476,0.925,2.21,1.391c0.42,0.268,0.842,0.531,1.26,0.803
	c0.762,0.493,1.516,0.998,2.268,1.503c0.381,0.255,0.766,0.508,1.145,0.766c0.79,0.539,1.573,1.088,2.354,1.64
	c0.336,0.237,0.675,0.469,1.009,0.708c0.838,0.599,1.667,1.211,2.494,1.825c0.27,0.2,0.542,0.395,0.811,0.596
	c0.936,0.703,1.862,1.417,2.784,2.137c0.154,0.12,0.309,0.236,0.463,0.357c4.339,3.415,8.518,7.026,12.52,10.821
	c0.085,0.081,0.169,0.165,0.254,0.246c0.903,0.859,1.798,1.727,2.684,2.605c0.19,0.189,0.376,0.382,0.567,0.573
	c0.775,0.776,1.547,1.556,2.309,2.347c0.24,0.249,0.474,0.503,0.713,0.754c0.703,0.738,1.404,1.479,2.094,2.23
	c0.269,0.292,0.532,0.59,0.798,0.884c0.651,0.717,1.301,1.436,1.941,2.165c0.285,0.323,0.563,0.653,0.846,0.98
	c0.612,0.707,1.224,1.415,1.825,2.132c0.293,0.35,0.582,0.704,0.872,1.056c0.58,0.702,1.159,1.406,1.728,2.118
	c0.297,0.37,0.588,0.746,0.882,1.118c0.553,0.702,1.104,1.405,1.647,2.116c0.298,0.391,0.591,0.784,0.886,1.177
	c0.527,0.702,1.052,1.405,1.568,2.114c0.297,0.408,0.59,0.82,0.884,1.232c0.503,0.704,1.004,1.409,1.497,2.121
	c0.294,0.423,0.583,0.85,0.874,1.277c0.481,0.707,0.96,1.417,1.432,2.131c0.289,0.437,0.574,0.877,0.858,1.316
	c0.462,0.713,0.921,1.429,1.372,2.149c0.282,0.45,0.56,0.901,0.839,1.354c0.441,0.718,0.88,1.439,1.311,2.163
	c0.276,0.462,0.548,0.926,0.819,1.39c0.423,0.725,0.841,1.452,1.254,2.184c0.266,0.472,0.531,0.946,0.793,1.421
	c0.405,0.731,0.804,1.467,1.198,2.204c0.257,0.482,0.514,0.965,0.768,1.45c0.388,0.74,0.768,1.485,1.145,2.232
	c0.247,0.489,0.493,0.98,0.736,1.472c0.369,0.748,0.731,1.5,1.09,2.254c0.238,0.5,0.476,1.001,0.71,1.503
	c0.35,0.754,0.693,1.51,1.032,2.27c0.228,0.51,0.457,1.019,0.681,1.531c0.333,0.763,0.657,1.529,0.98,2.297
	c0.217,0.516,0.434,1.031,0.646,1.549c0.315,0.771,0.621,1.547,0.927,2.324c0.204,0.522,0.411,1.044,0.611,1.567
	c0.299,0.783,0.588,1.572,0.876,2.36c0.191,0.524,0.385,1.047,0.572,1.574c0.283,0.796,0.554,1.597,0.826,2.398
	c0.178,0.527,0.36,1.053,0.534,1.583c0.265,0.809,0.519,1.622,0.773,2.436c0.165,0.528,0.334,1.054,0.494,1.584
	c0.248,0.823,0.484,1.651,0.721,2.479c0.152,0.529,0.307,1.056,0.455,1.587c0.232,0.839,0.451,1.683,0.67,2.528
	c0.136,0.525,0.279,1.047,0.411,1.574c0.218,0.87,0.422,1.745,0.628,2.62c0.119,0.507,0.244,1.01,0.359,1.518
	c0.208,0.922,0.4,1.849,0.594,2.777c0.098,0.467,0.202,0.931,0.296,1.399c0.203,1.016,0.391,2.039,0.578,3.062
	c0.07,0.384,0.148,0.767,0.216,1.153c0.24,1.369,0.465,2.744,0.674,4.125c0.006,0.042,0.014,0.082,0.02,0.124
	c0.215,1.422,0.412,2.849,0.593,4.281c0.059,0.468,0.106,0.939,0.162,1.408c0.109,0.92,0.22,1.839,0.314,2.763
	c-0.085-0.074-0.176-0.142-0.261-0.217c-0.372-0.319-0.751-0.631-1.134-0.937c-0.149-0.119-0.295-0.241-0.446-0.358
	c-0.531-0.414-1.07-0.817-1.619-1.205c-0.107-0.075-0.216-0.145-0.323-0.221c-0.453-0.314-0.91-0.62-1.374-0.919
	c-0.184-0.118-0.37-0.233-0.556-0.348c-0.41-0.254-0.825-0.501-1.243-0.742c-0.185-0.106-0.369-0.214-0.555-0.317
	c-0.527-0.293-1.059-0.576-1.597-0.846c-0.068-0.035-0.135-0.072-0.204-0.106c-0.609-0.302-1.226-0.588-1.849-0.862
	c-0.176-0.077-0.354-0.15-0.531-0.224c-0.458-0.194-0.919-0.38-1.382-0.559c-0.21-0.08-0.419-0.16-0.631-0.237
	c-0.475-0.174-0.953-0.338-1.435-0.495c-0.129-0.042-0.255-0.092-0.384-0.132c-0.064-0.383-0.137-0.764-0.204-1.147
	c-0.096-0.547-0.191-1.093-0.292-1.639c-0.119-0.644-0.244-1.285-0.371-1.927c-0.107-0.54-0.213-1.08-0.324-1.619
	c-0.134-0.646-0.276-1.289-0.418-1.933c-0.117-0.531-0.233-1.061-0.355-1.59c-0.151-0.65-0.308-1.298-0.467-1.946
	c-0.126-0.519-0.251-1.039-0.382-1.555c-0.168-0.658-0.344-1.314-0.52-1.969c-0.134-0.502-0.265-1.006-0.405-1.507
	c-0.186-0.671-0.383-1.34-0.578-2.008c-0.14-0.482-0.277-0.964-0.422-1.444c-0.212-0.702-0.434-1.4-0.655-2.098
	c-0.139-0.441-0.275-0.885-0.418-1.325c-0.249-0.765-0.511-1.526-0.77-2.287c-0.127-0.371-0.248-0.745-0.377-1.115
	c-0.348-0.995-0.709-1.984-1.075-2.971c-0.05-0.133-0.096-0.268-0.145-0.401c-0.421-1.125-0.855-2.244-1.301-3.359
	c-0.105-0.262-0.217-0.522-0.322-0.783c-0.343-0.845-0.688-1.689-1.045-2.528c-0.166-0.389-0.339-0.774-0.508-1.162
	c-0.307-0.708-0.614-1.416-0.932-2.119c-0.196-0.434-0.401-0.866-0.6-1.298c-0.3-0.65-0.599-1.3-0.907-1.945
	c-0.219-0.458-0.445-0.912-0.668-1.368c-0.302-0.616-0.602-1.234-0.912-1.847c-0.235-0.465-0.476-0.926-0.715-1.388
	c-0.309-0.598-0.617-1.196-0.935-1.79c-0.249-0.469-0.506-0.934-0.759-1.4c-0.317-0.582-0.635-1.165-0.959-1.742
	c-0.263-0.47-0.533-0.938-0.802-1.406c-0.326-0.568-0.652-1.135-0.985-1.699c-0.277-0.47-0.558-0.937-0.84-1.404
	c-0.336-0.556-0.673-1.113-1.015-1.665c-0.288-0.465-0.58-0.928-0.873-1.39c-0.347-0.548-0.696-1.094-1.05-1.639
	c-0.3-0.461-0.603-0.921-0.907-1.378c-0.358-0.539-0.718-1.075-1.082-1.61c-0.31-0.456-0.624-0.91-0.939-1.363
	c-0.369-0.53-0.742-1.058-1.117-1.584c-0.321-0.451-0.645-0.9-0.97-1.347c-0.38-0.522-0.764-1.041-1.15-1.557
	c-0.332-0.443-0.664-0.887-1.001-1.328c-0.392-0.514-0.788-1.024-1.187-1.534c-0.342-0.436-0.682-0.873-1.028-1.307
	c-0.405-0.507-0.814-1.01-1.225-1.513c-0.35-0.428-0.699-0.856-1.053-1.281c-0.419-0.501-0.843-0.999-1.268-1.496
	c-0.356-0.417-0.711-0.834-1.072-1.248c-0.435-0.499-0.877-0.993-1.319-1.487c-0.36-0.404-0.719-0.809-1.083-1.209
	c-0.453-0.496-0.912-0.987-1.371-1.478c-0.365-0.391-0.727-0.784-1.097-1.172c-0.474-0.498-0.957-0.99-1.437-1.482
	c-0.362-0.371-0.72-0.745-1.086-1.113c-0.512-0.514-1.031-1.02-1.55-1.529c-0.346-0.339-0.688-0.68-1.036-1.017
	c-0.587-0.565-1.183-1.12-1.778-1.676c-0.29-0.271-0.574-0.545-0.866-0.814c-0.893-0.822-1.794-1.636-2.707-2.44
	c-30.091-26.518-68.774-41.123-108.926-41.123c-40.148,0-78.83,14.602-108.921,41.118c-0.911,0.804-1.813,1.616-2.705,2.437
	c-0.301,0.277-0.595,0.56-0.893,0.839c-0.587,0.548-1.174,1.095-1.752,1.652c-0.352,0.339-0.697,0.685-1.046,1.026
	c-0.515,0.505-1.031,1.008-1.54,1.519c-0.367,0.369-0.727,0.745-1.091,1.118c-0.479,0.491-0.96,0.981-1.432,1.477
	c-0.373,0.392-0.739,0.789-1.109,1.185c-0.454,0.485-0.907,0.97-1.355,1.461c-0.371,0.407-0.736,0.82-1.103,1.23
	c-0.434,0.487-0.87,0.973-1.299,1.465c-0.367,0.421-0.729,0.847-1.092,1.271c-0.418,0.489-0.835,0.977-1.247,1.471
	c-0.361,0.432-0.716,0.869-1.072,1.304c-0.404,0.494-0.807,0.989-1.204,1.487c-0.354,0.443-0.703,0.89-1.053,1.337
	c-0.389,0.497-0.776,0.996-1.159,1.496c-0.346,0.454-0.689,0.909-1.029,1.366c-0.376,0.503-0.751,1.009-1.121,1.518
	c-0.336,0.461-0.668,0.924-1,1.387c-0.364,0.511-0.726,1.023-1.084,1.538c-0.325,0.468-0.649,0.937-0.969,1.407
	c-0.354,0.519-0.704,1.041-1.051,1.563c-0.315,0.474-0.629,0.95-0.939,1.427c-0.341,0.525-0.677,1.051-1.012,1.58
	c-0.306,0.482-0.61,0.965-0.911,1.451c-0.329,0.531-0.653,1.065-0.975,1.6c-0.294,0.488-0.589,0.975-0.878,1.466
	c-0.319,0.542-0.633,1.086-0.946,1.632c-0.281,0.489-0.564,0.979-0.839,1.472c-0.309,0.551-0.612,1.108-0.915,1.662
	c-0.269,0.492-0.539,0.985-0.804,1.48c-0.299,0.561-0.591,1.127-0.883,1.693C109.316,241.845,109.057,242.339,108.806,242.837z
	 M471.131,303.043c14.601,1.088,25.613,13.174,25.613,28.113c0,6.887-2.035,11.168-4.005,15.31L492.485,347
	c-5.38,11.353-34.301,38.04-55.197,55.655c-16.818-14.292-49.096-43.226-55.287-55.766l-0.147-0.298
	c-2.048-4.143-3.981-8.057-3.981-15.435c0-7.946,3.092-15.277,8.707-20.641c5.103-4.876,11.835-7.563,18.953-7.563
	c0.399,0,0.799,0.009,1.201,0.027c1.207,0.056,2.435,0.195,3.724,0.422c8.526,1.501,16.024,6.981,20.058,14.658l6.754,12.85
	l6.753-12.85c0.27-0.513,0.557-1.019,0.862-1.519c0.914-1.497,1.985-2.928,3.196-4.269c5.347-5.923,12.975-9.32,20.925-9.32
	C469.62,302.952,470.295,302.982,471.131,303.043z M256,107.91c105.283,0,192.944,76.896,207.149,180.185
	c-0.159,0.021-0.315,0.052-0.474,0.075c-0.263,0.039-0.527,0.082-0.789,0.126c-0.43,0.072-0.858,0.151-1.286,0.235
	c-0.261,0.052-0.523,0.104-0.782,0.161c-0.44,0.096-0.879,0.201-1.315,0.311c-0.237,0.059-0.474,0.115-0.71,0.178
	c-0.53,0.142-1.056,0.298-1.58,0.46c-0.136,0.042-0.274,0.078-0.41,0.122c-0.651,0.208-1.296,0.433-1.936,0.672
	c-0.203,0.076-0.404,0.161-0.606,0.239c-0.439,0.171-0.877,0.345-1.31,0.531c-0.249,0.107-0.494,0.22-0.742,0.331
	c-0.384,0.173-0.766,0.349-1.145,0.533c-0.254,0.123-0.508,0.25-0.76,0.378c-0.169,0.085-0.341,0.165-0.508,0.253
	c-0.007-0.055-0.015-0.109-0.022-0.164c-0.064-0.513-0.14-1.021-0.21-1.532c-0.137-1.028-0.274-2.057-0.426-3.079
	c-0.089-0.593-0.19-1.181-0.284-1.772c-0.15-0.937-0.296-1.874-0.459-2.805c-0.109-0.626-0.23-1.247-0.345-1.871
	c-0.164-0.89-0.327-1.781-0.502-2.667c-0.128-0.644-0.266-1.284-0.401-1.926c-0.18-0.859-0.359-1.72-0.55-2.574
	c-0.146-0.654-0.302-1.304-0.455-1.955c-0.196-0.836-0.393-1.671-0.599-2.502c-0.164-0.658-0.336-1.313-0.506-1.968
	c-0.213-0.82-0.427-1.639-0.651-2.454c-0.18-0.656-0.366-1.309-0.553-1.963c-0.23-0.807-0.463-1.612-0.703-2.415
	c-0.195-0.654-0.397-1.304-0.599-1.955c-0.247-0.795-0.498-1.589-0.755-2.379c-0.212-0.651-0.428-1.299-0.646-1.947
	c-0.263-0.782-0.532-1.562-0.806-2.34c-0.227-0.646-0.458-1.291-0.692-1.934c-0.282-0.774-0.569-1.546-0.86-2.316
	c-0.241-0.637-0.484-1.272-0.731-1.906c-0.3-0.768-0.606-1.533-0.915-2.296c-0.254-0.628-0.51-1.254-0.77-1.878
	c-0.318-0.763-0.644-1.522-0.972-2.279c-0.266-0.615-0.532-1.231-0.805-1.843c-0.338-0.758-0.682-1.511-1.029-2.263
	c-0.279-0.604-0.555-1.209-0.84-1.811c-0.358-0.756-0.724-1.505-1.091-2.255c-0.288-0.588-0.573-1.177-0.866-1.761
	c-0.381-0.761-0.774-1.516-1.166-2.271c-0.293-0.565-0.582-1.131-0.88-1.693c-0.408-0.769-0.828-1.531-1.246-2.293
	c-0.296-0.54-0.588-1.083-0.889-1.62c-0.442-0.788-0.897-1.569-1.35-2.351c-0.29-0.5-0.575-1.005-0.869-1.502
	c-0.503-0.851-1.021-1.694-1.537-2.537c-0.256-0.418-0.507-0.841-0.766-1.257c-0.651-1.046-1.316-2.08-1.987-3.111
	c-0.135-0.209-0.267-0.421-0.403-0.63c-0.814-1.242-1.642-2.475-2.484-3.697c-0.175-0.253-0.356-0.501-0.532-0.755
	c-0.666-0.958-1.337-1.914-2.02-2.86c-0.302-0.418-0.613-0.829-0.919-1.244c-0.569-0.773-1.135-1.547-1.714-2.311
	c-0.352-0.465-0.714-0.923-1.07-1.384c-0.543-0.704-1.086-1.41-1.639-2.106c-0.385-0.485-0.778-0.962-1.168-1.443
	c-0.537-0.663-1.074-1.328-1.62-1.984c-0.409-0.492-0.826-0.977-1.24-1.465c-0.538-0.634-1.075-1.267-1.621-1.894
	c-0.43-0.493-0.867-0.982-1.302-1.471c-0.543-0.611-1.086-1.222-1.637-1.826c-0.446-0.489-0.898-0.972-1.349-1.458
	c-0.552-0.593-1.105-1.185-1.664-1.771c-0.46-0.482-0.925-0.959-1.389-1.436c-0.561-0.577-1.125-1.151-1.694-1.721
	c-0.475-0.475-0.953-0.947-1.432-1.417c-0.571-0.559-1.143-1.117-1.72-1.669c-0.487-0.467-0.977-0.93-1.47-1.391
	c-0.582-0.545-1.166-1.087-1.754-1.625c-0.498-0.457-1-0.91-1.503-1.362c-0.594-0.532-1.192-1.061-1.792-1.586
	c-0.508-0.443-1.016-0.886-1.529-1.324c-0.608-0.521-1.22-1.035-1.834-1.548c-0.516-0.43-1.031-0.861-1.552-1.286
	c-0.622-0.51-1.25-1.012-1.88-1.514c-0.523-0.416-1.045-0.833-1.572-1.244c-0.639-0.498-1.283-0.99-1.927-1.48
	c-0.528-0.402-1.055-0.805-1.587-1.2c-0.656-0.488-1.319-0.969-1.981-1.449c-0.53-0.384-1.059-0.771-1.593-1.15
	c-0.676-0.48-1.36-0.951-2.042-1.423c-0.531-0.367-1.059-0.736-1.594-1.099c-0.704-0.476-1.415-0.942-2.126-1.409
	c-0.522-0.343-1.041-0.691-1.565-1.028c-0.75-0.482-1.507-0.953-2.264-1.425c-0.495-0.309-0.988-0.625-1.486-0.93
	c-0.837-0.512-1.682-1.011-2.528-1.51c-0.427-0.252-0.849-0.512-1.279-0.761c-1.124-0.653-2.257-1.292-3.395-1.923
	c-0.157-0.086-0.31-0.178-0.467-0.264c-1.298-0.715-2.605-1.415-3.92-2.1c-0.39-0.203-0.785-0.397-1.176-0.597
	c-0.929-0.476-1.856-0.952-2.793-1.414c-0.511-0.251-1.026-0.491-1.539-0.738c-0.824-0.397-1.648-0.796-2.478-1.182
	c-0.567-0.262-1.138-0.515-1.707-0.772c-0.786-0.356-1.571-0.713-2.362-1.059c-0.598-0.261-1.201-0.512-1.803-0.767
	c-0.77-0.327-1.539-0.655-2.313-0.972c-0.619-0.253-1.243-0.497-1.865-0.745c-0.766-0.304-1.533-0.609-2.304-0.904
	c-0.634-0.242-1.27-0.476-1.907-0.712c-0.766-0.284-1.532-0.568-2.303-0.841c-0.649-0.231-1.3-0.455-1.952-0.678
	c-0.767-0.263-1.534-0.526-2.305-0.78c-0.66-0.218-1.323-0.429-1.987-0.64c-0.77-0.245-1.541-0.487-2.316-0.723
	c-0.668-0.203-1.339-0.402-2.01-0.598c-0.777-0.227-1.555-0.451-2.336-0.668c-0.675-0.188-1.353-0.372-2.031-0.553
	c-0.783-0.21-1.567-0.414-2.354-0.613c-0.682-0.173-1.367-0.343-2.052-0.51c-0.79-0.191-1.583-0.376-2.377-0.558
	c-0.687-0.158-1.374-0.312-2.064-0.462c-0.801-0.174-1.604-0.341-2.408-0.505c-0.689-0.14-1.378-0.281-2.07-0.414
	c-0.811-0.157-1.623-0.304-2.437-0.45c-0.693-0.124-1.384-0.249-2.08-0.366c-0.82-0.138-1.643-0.265-2.466-0.394
	c-0.694-0.108-1.387-0.217-2.083-0.317c-0.834-0.12-1.671-0.229-2.509-0.339c-0.691-0.091-1.379-0.183-2.072-0.267
	c-0.854-0.103-1.712-0.192-2.569-0.283c-0.68-0.072-1.36-0.15-2.043-0.215c-0.886-0.084-1.776-0.156-2.665-0.228
	c-0.658-0.054-1.315-0.114-1.974-0.162c-0.939-0.067-1.883-0.119-2.826-0.173c-0.616-0.036-1.23-0.078-1.847-0.108
	c-1.044-0.05-2.092-0.081-3.141-0.115c-0.521-0.016-1.04-0.042-1.561-0.055c-1.572-0.038-3.146-0.058-4.726-0.058
	c-1.581,0-3.156,0.02-4.728,0.058c-0.528,0.012-1.053,0.039-1.581,0.055c-1.042,0.034-2.083,0.065-3.121,0.114
	c-0.627,0.029-1.25,0.073-1.876,0.109c-0.934,0.054-1.869,0.104-2.798,0.171c-0.663,0.048-1.322,0.108-1.983,0.162
	c-0.889,0.073-1.778,0.143-2.664,0.228c-0.676,0.065-1.35,0.141-2.024,0.213c-0.866,0.092-1.731,0.182-2.593,0.286
	c-0.684,0.082-1.364,0.174-2.046,0.263c-0.847,0.111-1.695,0.221-2.538,0.342c-0.688,0.099-1.373,0.208-2.059,0.313
	c-0.832,0.129-1.663,0.258-2.491,0.398c-0.688,0.116-1.373,0.239-2.059,0.362c-0.822,0.147-1.644,0.297-2.463,0.455
	c-0.683,0.131-1.363,0.27-2.042,0.408c-0.816,0.166-1.63,0.336-2.441,0.512c-0.677,0.147-1.353,0.3-2.028,0.454
	c-0.809,0.185-1.616,0.374-2.422,0.569c-0.67,0.163-1.339,0.329-2.007,0.497c-0.804,0.203-1.605,0.413-2.405,0.627
	c-0.662,0.177-1.323,0.357-1.983,0.54c-0.799,0.223-1.597,0.452-2.392,0.685c-0.652,0.191-1.303,0.382-1.952,0.58
	c-0.799,0.243-1.595,0.493-2.389,0.747c-0.638,0.203-1.276,0.406-1.91,0.615c-0.801,0.264-1.598,0.537-2.394,0.811
	c-0.621,0.215-1.244,0.427-1.862,0.647c-0.806,0.287-1.607,0.583-2.408,0.88c-0.602,0.224-1.205,0.444-1.804,0.673
	c-0.816,0.312-1.625,0.634-2.436,0.956c-0.577,0.23-1.155,0.456-1.73,0.691c-0.833,0.341-1.661,0.694-2.488,1.046
	c-0.543,0.231-1.088,0.458-1.629,0.694c-0.869,0.379-1.73,0.771-2.593,1.163c-0.492,0.224-0.988,0.441-1.477,0.668
	c-0.939,0.435-1.871,0.886-2.801,1.336c-0.406,0.196-0.816,0.387-1.221,0.586c-1.138,0.56-2.267,1.135-3.393,1.717
	c-0.191,0.099-0.385,0.193-0.576,0.293c-2.653,1.382-5.27,2.826-7.85,4.326c-0.294,0.171-0.583,0.349-0.876,0.521
	c-0.983,0.579-1.964,1.16-2.936,1.755c-0.398,0.244-0.79,0.495-1.186,0.742c-0.858,0.535-1.718,1.07-2.567,1.617
	c-0.442,0.285-0.879,0.578-1.318,0.867c-0.796,0.522-1.592,1.045-2.38,1.578c-0.461,0.311-0.915,0.631-1.372,0.946
	c-0.759,0.523-1.517,1.047-2.267,1.58c-0.469,0.334-0.934,0.673-1.4,1.011c-0.729,0.528-1.457,1.057-2.178,1.594
	c-0.473,0.353-0.941,0.711-1.411,1.068c-0.705,0.536-1.409,1.073-2.107,1.618c-0.471,0.368-0.939,0.742-1.406,1.114
	c-0.687,0.547-1.372,1.096-2.052,1.653c-0.465,0.38-0.927,0.765-1.387,1.15c-0.673,0.561-1.344,1.126-2.009,1.697
	c-0.456,0.391-0.909,0.784-1.361,1.18c-0.659,0.576-1.315,1.155-1.966,1.74c-0.448,0.402-0.894,0.806-1.338,1.212
	c-0.647,0.591-1.289,1.187-1.929,1.787c-0.435,0.409-0.87,0.82-1.302,1.233c-0.638,0.61-1.269,1.226-1.899,1.844
	c-0.422,0.415-0.843,0.83-1.261,1.248c-0.63,0.631-1.252,1.266-1.874,1.905c-0.406,0.418-0.813,0.835-1.214,1.256
	c-0.624,0.653-1.239,1.312-1.853,1.973c-0.389,0.419-0.779,0.837-1.165,1.259c-0.619,0.679-1.231,1.366-1.841,2.054
	c-0.367,0.414-0.737,0.827-1.101,1.244c-0.621,0.713-1.234,1.435-1.845,2.157c-0.341,0.403-0.686,0.804-1.023,1.209
	c-0.631,0.758-1.251,1.525-1.871,2.293c-0.306,0.379-0.617,0.756-0.921,1.138c-0.659,0.829-1.306,1.668-1.952,2.509
	c-0.253,0.329-0.511,0.654-0.761,0.985c-0.725,0.956-1.437,1.923-2.145,2.894c-0.163,0.223-0.331,0.442-0.492,0.666
	c-2.62,3.625-5.117,7.345-7.487,11.153c-0.163,0.261-0.318,0.527-0.48,0.789c-0.614,0.998-1.225,1.999-1.822,3.009
	c-0.228,0.385-0.448,0.777-0.673,1.165c-0.52,0.894-1.039,1.788-1.544,2.691c-0.251,0.45-0.495,0.903-0.744,1.355
	c-0.468,0.851-0.936,1.703-1.391,2.562c-0.258,0.487-0.51,0.98-0.764,1.469c-0.431,0.83-0.862,1.66-1.281,2.497
	c-0.261,0.521-0.515,1.046-0.771,1.568c-0.399,0.814-0.796,1.63-1.184,2.449c-0.257,0.545-0.51,1.095-0.762,1.644
	c-0.373,0.809-0.744,1.618-1.106,2.433c-0.25,0.564-0.494,1.129-0.739,1.695c-0.35,0.808-0.697,1.617-1.035,2.431
	c-0.241,0.579-0.477,1.16-0.713,1.741c-0.328,0.809-0.652,1.62-0.969,2.434c-0.231,0.593-0.458,1.187-0.684,1.783
	c-0.307,0.812-0.609,1.626-0.905,2.443c-0.219,0.603-0.435,1.208-0.649,1.815c-0.288,0.819-0.57,1.64-0.846,2.464
	c-0.205,0.611-0.41,1.223-0.609,1.836c-0.269,0.826-0.53,1.655-0.788,2.486c-0.192,0.619-0.384,1.239-0.571,1.861
	c-0.249,0.834-0.491,1.671-0.729,2.51c-0.178,0.625-0.356,1.248-0.528,1.876c-0.232,0.845-0.454,1.696-0.673,2.545
	c-0.163,0.627-0.327,1.253-0.483,1.883c-0.214,0.861-0.417,1.726-0.619,2.592c-0.146,0.625-0.295,1.247-0.435,1.875
	c-0.196,0.881-0.381,1.766-0.566,2.652c-0.129,0.618-0.262,1.236-0.387,1.856c-0.18,0.908-0.347,1.823-0.515,2.735
	c-0.111,0.603-0.228,1.204-0.333,1.809c-0.167,0.956-0.317,1.917-0.469,2.879c-0.091,0.568-0.187,1.133-0.273,1.703
	c-0.158,1.053-0.297,2.112-0.438,3.171c-0.064,0.483-0.136,0.963-0.197,1.447c-0.006,0.048-0.013,0.095-0.019,0.142
	c-0.184-0.098-0.373-0.185-0.558-0.28c-0.246-0.126-0.493-0.251-0.743-0.372c-0.394-0.191-0.791-0.374-1.191-0.554
	c-0.23-0.104-0.459-0.21-0.691-0.309c-0.481-0.206-0.968-0.401-1.457-0.59c-0.154-0.059-0.304-0.124-0.459-0.182
	c-0.645-0.241-1.295-0.467-1.951-0.677c-0.165-0.053-0.333-0.098-0.497-0.15c-0.494-0.153-0.991-0.3-1.491-0.434
	c-0.239-0.064-0.479-0.121-0.719-0.182c-0.434-0.109-0.87-0.214-1.308-0.309c-0.259-0.057-0.519-0.109-0.779-0.161
	c-0.431-0.085-0.864-0.165-1.297-0.238c-0.257-0.043-0.515-0.086-0.773-0.125c-0.144-0.021-0.288-0.05-0.433-0.07
	C63.057,184.819,150.72,107.91,256,107.91z M40.846,303.039c0.822-0.059,1.48-0.086,2.071-0.086c7.981,0,15.629,3.42,20.981,9.384
	c1.592,1.774,2.94,3.7,4.004,5.725l6.753,12.85l6.753-12.85c0.759-1.443,1.64-2.809,2.626-4.085c2.96-3.828,6.875-6.85,11.311-8.748
	c1.971-0.843,4.044-1.465,6.182-1.836l0.016-0.003c1.692-0.293,3.277-0.437,4.849-0.437c7.141,0,13.898,2.699,19.026,7.598
	c5.617,5.368,8.71,12.686,8.71,20.606c0,6.887-2.035,11.168-4.005,15.31L129.869,347c-5.38,11.353-34.301,38.04-55.197,55.655
	c-16.818-14.292-49.097-43.226-55.287-55.766l-0.147-0.298c-2.047-4.144-3.98-8.057-3.98-15.435
	C15.257,316.183,26.262,304.094,40.846,303.039z"/>
<g>
</g>
<g>
</g>
<g>
</g>
<g>
</g>
<g>
</g>
<g>
</g>
<g>
</g>
<g>
</g>
<g>
</g>
<g>
</g>
<g>
</g>
<g>
</g>
<g>
</g>
<g>
</g>
<g>
</g>
</svg>
