<?xml version="1.0" encoding="iso-8859-1"?>
<!-- Generator: Adobe Illustrator 19.0.0, SVG Export Plug-In . SVG Version: 6.00 Build 0)  -->
<svg version="1.1" id="Layer_1" xmlns="http://www.w3.org/2000/svg" xmlns:xlink="http://www.w3.org/1999/xlink" x="0px" y="0px"
	 viewBox="0 0 507.733 507.733" style="enable-background:new 0 0 507.733 507.733;" xml:space="preserve">
<path style="fill:#C49AE9;" d="M457.387,59.733h-30.72c-163.84,0-302.933,107.52-349.867,256v0.853c0,0-6.827,19.627-8.533,33.28
	v0.853c-14.507,3.413-25.6,17.067-25.6,33.28c0,6.827,1.707,12.8,5.12,18.773c-23.04,5.12-39.253,25.6-39.253,49.493
	c0-34.987,2.56-68.267,2.56-68.267C32.427,173.227,210.773,8.533,427.52,8.533c1.707,0,59.733,0,59.733,0v3.413
	C471.893,18.773,460.8,33.28,460.8,51.2c0,2.56,0,5.12,0.853,7.68L457.387,59.733z"/>
<path style="fill:#FFD0A1;" d="M170.667,332.8c-18.773,0-35.84,6.827-49.493,17.92l-0.853-0.853
	c3.413-20.48,13.653-41.813,13.653-41.813c44.373-108.373,156.16-196.267,296.96-196.267h38.4c0,6.827,2.56,12.8,5.973,17.92
	c-17.92,4.267-31.573,17.067-37.547,33.28l-2.56-0.853c-11.947,0-34.133,0.853-34.133,0.853
	c-88.747,8.533-164.693,60.587-205.653,134.827c0,0-11.947,17.067-16.213,31.573l-0.853,3.413
	C176.64,332.8,173.227,332.8,170.667,332.8"/>
<path style="fill:#FF7474;" d="M68.267,349.867c1.707-14.507,8.533-33.28,8.533-33.28v-0.853c46.933-148.48,186.027-256,349.867-256
	h30.72l4.267-0.853c0,0,0,0,0,0.853c0,0,2.56,22.187,13.653,30.72h0.853c-4.267,5.973-6.827,12.8-6.827,20.48h-38.4
	c-140.8,0-252.587,88.747-296.96,196.267c0,0-10.24,21.333-13.653,41.813l0.853,0.853c-5.973,5.12-11.093,10.24-15.36,17.067
	c-5.973-10.24-17.067-17.92-29.867-17.92c-2.56,0-5.973,0-8.533,0.853H68.267z"/>
<path style="fill:#7EE1E6;" d="M236.373,323.413c0,0-6.827,13.653-9.387,29.013l-2.56,2.56
	c-11.947-11.947-28.16-19.627-45.227-21.333v-3.413c4.267-14.507,16.213-31.573,16.213-31.573
	c40.96-74.24,116.907-126.293,205.653-134.827c0,0,23.04-0.853,34.133-0.853l2.56,0.853c-1.707,5.12-2.56,11.093-2.56,16.213
	c0,10.24,3.413,20.48,8.533,29.013l-6.827,5.12c-17.92,0-35.84,0.853-35.84,0.853C329.387,220.16,267.947,262.827,236.373,323.413"
	/>
<path style="fill:#ECF4F7;" d="M476.16,90.453L476.16,90.453c-12.8-8.533-14.507-30.72-14.507-30.72s0,0,0-0.853
	c-0.853-2.56-0.853-5.12-0.853-7.68c0-17.92,11.093-32.427,26.453-39.253c5.12-2.56,11.093-3.413,16.213-3.413v221.013
	c-7.68,0.853-17.067,0.853-17.067,0.853c-17.92,0-33.28-8.533-42.667-22.187c-5.973-8.533-8.533-17.92-8.533-29.013
	c0-5.973,0.853-11.093,2.56-16.213c5.973-17.067,19.627-29.867,37.547-33.28c-3.413-5.12-5.973-11.093-5.973-17.92
	C469.333,103.253,471.893,96.427,476.16,90.453z M244.053,388.267c0,0,3.413,11.093,3.413,29.013v0.853
	c21.333,2.56,34.133,25.6,34.133,41.813c0,23.893-18.773,42.667-42.667,42.667h-179.2c-28.16,0-51.2-23.04-51.2-51.2
	c0-23.893,17.067-44.373,39.253-49.493c-3.413-5.12-5.12-11.947-5.12-18.773c0-16.213,11.093-29.013,25.6-33.28
	c2.56-0.853,5.12-0.853,8.533-0.853c12.8,0,23.893,6.827,29.867,17.92c4.267-5.973,9.387-11.947,15.36-17.067
	c13.653-11.093,30.72-17.92,49.493-17.92c2.56,0,5.973,0,8.533,0.853c17.92,1.707,33.28,9.387,45.227,21.333
	C233.813,363.52,240.64,375.467,244.053,388.267z"/>
<circle style="fill:#FFD0A1;" cx="8.533" cy="68.267" r="8.533"/>
<circle style="fill:#7EE1E6;" cx="204.8" cy="8.533" r="8.533"/>
<circle style="fill:#C49AE9;" cx="392.533" cy="366.933" r="8.533"/>
<path style="fill:#51565F;" d="M349.867,507.733c-2.56,0-4.267-1.707-4.267-4.267v-12.8h-12.8c-2.56,0-4.267-1.707-4.267-4.267
	s1.707-4.267,4.267-4.267h12.8v-12.8c0-2.56,1.707-4.267,4.267-4.267c2.56,0,4.267,1.707,4.267,4.267v12.8h12.8
	c2.56,0,4.267,1.707,4.267,4.267s-1.707,4.267-4.267,4.267h-12.8v12.8C354.133,506.027,352.427,507.733,349.867,507.733z
	 M238.933,507.733h-179.2c-30.72,0-55.467-24.747-55.467-55.467c0-23.893,15.36-45.227,37.547-52.053
	c-2.56-5.12-3.413-10.24-3.413-16.213c0-21.333,17.067-38.4,38.4-38.4c11.947,0,22.187,5.12,29.867,14.507
	c15.36-19.627,39.253-31.573,64-31.573c35.84,0,67.413,23.893,77.653,58.027c0.853,2.56-0.853,4.267-2.56,5.12
	c-2.56,0.853-4.267-0.853-5.12-2.56c-9.387-30.72-37.547-52.053-69.973-52.053c-24.747,0-46.933,11.947-60.587,32.427
	c-0.853,0.853-2.56,1.707-3.413,1.707c-1.707,0-2.56-0.853-3.413-2.56c-5.12-9.387-15.36-15.36-25.6-15.36
	c-16.213,0-29.867,13.653-29.867,29.867c0,5.973,1.707,11.093,5.12,16.213c0.853,0.853,0.853,2.56,0,4.267
	c-0.853,1.707-1.707,2.56-3.413,2.56C28.16,411.307,12.8,430.08,12.8,452.267c0,25.6,21.333,46.933,46.933,46.933h179.2
	c21.333,0,38.4-17.067,38.4-38.4c0-9.387-5.12-23.893-16.213-32.427c-8.533-5.973-18.773-7.68-29.013-4.267
	c-2.56,0.853-4.267-0.853-5.12-2.56c-0.853-2.56,0.853-4.267,2.56-5.12c17.067-5.12,29.867,0,36.693,5.973
	c11.947,8.533,19.627,24.747,19.627,39.253C285.867,486.4,264.533,507.733,238.933,507.733z M10.24,389.12L10.24,389.12
	c-2.56,0-4.267-2.56-4.267-4.267C27.307,168.107,208.213,5.12,426.667,5.12c1.707,0,8.533,0,17.92,0c2.56,0,4.267,1.707,4.267,4.267
	s-1.707,4.267-4.267,4.267l0,0c-8.533,0-15.36,0-17.067,0c-213.333,0-390.827,159.573-412.16,372.053
	C14.507,387.413,12.8,389.12,10.24,389.12z M332.8,345.6c-2.56,0-4.267-1.707-4.267-4.267v-4.267h-4.267
	c-2.56,0-4.267-1.707-4.267-4.267s1.707-4.267,4.267-4.267h4.267v-4.267c0-2.56,1.707-4.267,4.267-4.267s4.267,1.707,4.267,4.267
	v4.267h4.267c2.56,0,4.267,1.707,4.267,4.267s-1.707,4.267-4.267,4.267h-4.267v4.267C337.067,343.893,335.36,345.6,332.8,345.6z
	 M236.373,327.68c-0.853,0-1.707,0-1.707-0.853c-1.707-0.853-2.56-3.413-1.707-5.973c33.28-64,96.427-105.813,168.107-111.787
	c2.56,0,4.267,1.707,4.267,4.267s-1.707,4.267-4.267,4.267c-69.12,5.973-129.707,46.08-161.28,107.52
	C239.787,326.827,238.08,327.68,236.373,327.68z M76.8,320c0,0-0.853,0-1.707,0c-2.56-0.853-3.413-3.413-2.56-5.12
	C121.173,159.573,263.68,55.467,426.667,55.467c2.56,0,4.267,1.707,4.267,4.267c0,2.56-1.707,4.267-4.267,4.267
	c-158.72,0-297.813,101.547-345.6,253.44C80.213,319.147,78.507,320,76.8,320z M133.973,311.467c-0.853,0-0.853,0-1.707,0
	c-2.56-0.853-3.413-3.413-2.56-5.973c48.64-118.613,169.813-198.827,301.227-198.827c2.56,0,4.267,1.707,4.267,4.267
	c0,2.56-1.707,4.267-4.267,4.267c-147.627,0-253.44,97.28-292.693,193.707C137.387,310.613,135.68,311.467,133.973,311.467z
	 M452.267,311.467c-2.56,0-4.267-1.707-4.267-4.267v-4.267h-4.267c-2.56,0-4.267-1.707-4.267-4.267s1.707-4.267,4.267-4.267H448
	v-4.267c0-2.56,1.707-4.267,4.267-4.267s4.267,1.707,4.267,4.267v4.267h4.267c2.56,0,4.267,1.707,4.267,4.267
	s-1.707,4.267-4.267,4.267h-4.267v4.267C456.533,309.76,454.827,311.467,452.267,311.467z M195.413,302.08
	c-0.853,0-1.707,0-1.707-0.853c-1.707-0.853-2.56-3.413-1.707-5.973C234.667,217.6,313.173,166.4,401.067,157.866
	c2.56,0,4.267,1.707,4.267,4.267c0,2.56-1.707,4.267-4.267,4.267c-85.333,7.68-160.427,58.027-202.24,132.267
	C197.973,301.227,197.12,302.08,195.413,302.08z M488.107,234.667c-1.707,0-1.707,0-2.56,0c-30.72,0-55.467-24.747-55.467-55.467
	c0-23.893,15.36-45.227,37.547-52.907c-2.56-5.12-3.413-10.24-3.413-15.36c0-17.92,11.947-33.28,29.013-37.547
	c2.56-0.853,4.267,0.853,5.12,3.413c0.853,2.56-0.853,4.267-3.413,5.12c-13.653,3.413-22.187,15.36-22.187,29.013
	c0,5.973,1.707,11.093,5.12,16.213c0.853,0.853,0.853,2.56,0,4.267c-0.853,1.707-1.707,2.56-3.413,2.56
	c-21.333,5.12-36.693,23.893-36.693,46.08c0,25.6,21.333,46.933,46.933,46.933c0,0,9.387,0,16.213-0.853
	c2.56,0,4.267,0.853,5.12,3.413c0,2.56-0.853,4.267-3.413,5.12C498.347,234.667,491.52,234.667,488.107,234.667z M25.6,192
	c-2.56,0-4.267-1.707-4.267-4.267v-4.267h-4.267c-2.56,0-4.267-1.707-4.267-4.267c0-2.56,1.707-4.267,4.267-4.267h4.267v-4.267
	c0-2.56,1.707-4.267,4.267-4.267s4.267,1.707,4.267,4.267v4.267h4.267c2.56,0,4.267,1.707,4.267,4.267
	c0,2.56-1.707,4.267-4.267,4.267h-4.267v4.267C29.867,190.293,28.16,192,25.6,192z M461.653,64c-1.707,0-3.413-1.707-4.267-3.413
	c-0.853-3.413-0.853-5.973-0.853-9.387c0-25.6,21.333-46.933,46.933-46.933c2.56,0,4.267,1.707,4.267,4.267
	s-1.707,4.267-4.267,4.267c-21.333,0-38.4,17.067-38.4,38.4c0,2.56,0,5.12,0.853,7.68s-0.853,4.267-3.413,5.12
	C462.507,64,461.653,64,461.653,64z M76.8,46.933c-2.56,0-4.267-1.707-4.267-4.267v-12.8h-12.8c-2.56,0-4.267-1.707-4.267-4.267
	s1.707-4.267,4.267-4.267h12.8v-12.8c0-2.56,1.707-4.267,4.267-4.267s4.267,1.707,4.267,4.267v12.8h12.8
	c2.56,0,4.267,1.707,4.267,4.267s-1.707,4.267-4.267,4.267h-12.8v12.8C81.067,45.227,79.36,46.933,76.8,46.933z"/>
<g>
</g>
<g>
</g>
<g>
</g>
<g>
</g>
<g>
</g>
<g>
</g>
<g>
</g>
<g>
</g>
<g>
</g>
<g>
</g>
<g>
</g>
<g>
</g>
<g>
</g>
<g>
</g>
<g>
</g>
</svg>
